<svg width="22" height="22" viewBox="0 0 22 22" fill="none" xmlns="http://www.w3.org/2000/svg">
<path d="M12.0744 15.349H10.1507C8.7898 15.349 7.67444 14.203 7.67444 12.7909C7.67444 12.3714 8.02235 12.0235 8.44188 12.0235C8.86142 12.0235 9.20932 12.3714 9.20932 12.7909C9.20932 13.3537 9.62886 13.8142 10.1507 13.8142H12.0744C12.4735 13.8142 12.7907 13.456 12.7907 13.016C12.7907 12.4635 12.6372 12.3816 12.2893 12.2588L9.20932 11.1844C8.55444 10.9593 7.67444 10.4783 7.67444 8.97415C7.67444 7.69511 8.68747 6.64116 9.9256 6.64116H11.8493C13.2103 6.64116 14.3256 7.78721 14.3256 9.19927C14.3256 9.6188 13.9777 9.96671 13.5582 9.96671C13.1386 9.96671 12.7907 9.6188 12.7907 9.19927C12.7907 8.63651 12.3712 8.17604 11.8493 8.17604H9.9256C9.52653 8.17604 9.20932 8.53418 9.20932 8.97415C9.20932 9.52671 9.36281 9.60857 9.71072 9.73136L12.7907 10.8058C13.4456 11.0309 14.3256 11.5118 14.3256 13.016C14.3256 14.3053 13.3126 15.349 12.0744 15.349Z" fill="#F0E9D2"/>
<path d="M11 16.3721C10.5805 16.3721 10.2325 16.0242 10.2325 15.6047V6.39537C10.2325 5.97584 10.5805 5.62793 11 5.62793C11.4195 5.62793 11.7674 5.97584 11.7674 6.39537V15.6047C11.7674 16.0242 11.4195 16.3721 11 16.3721Z" fill="#F0E9D2"/>
<path d="M11 22C4.93209 22 0 17.0679 0 11C0 4.93209 4.93209 0 11 0C11.4195 0 11.7674 0.347907 11.7674 0.767442C11.7674 1.18698 11.4195 1.53488 11 1.53488C5.7814 1.53488 1.53488 5.7814 1.53488 11C1.53488 16.2186 5.7814 20.4651 11 20.4651C16.2186 20.4651 20.4651 16.2186 20.4651 11C20.4651 10.5805 20.813 10.2326 21.2326 10.2326C21.6521 10.2326 22 10.5805 22 11C22 17.0679 17.0679 22 11 22Z" fill="#F0E9D2"/>
<path d="M20.2093 6.65118H16.1163C15.6967 6.65118 15.3488 6.30327 15.3488 5.88373V1.79071C15.3488 1.37118 15.6967 1.02327 16.1163 1.02327C16.5358 1.02327 16.8837 1.37118 16.8837 1.79071V5.11629H20.2093C20.6288 5.11629 20.9767 5.4642 20.9767 5.88373C20.9767 6.30327 20.6288 6.65118 20.2093 6.65118Z" fill="#F0E9D2"/>
<path d="M16.1158 6.65109C15.9214 6.65109 15.7269 6.57946 15.5734 6.42598C15.2767 6.12923 15.2767 5.63807 15.5734 5.34132L20.6897 0.225045C20.9865 -0.0716989 21.4776 -0.0716989 21.7744 0.225045C22.0711 0.521789 22.0711 1.01295 21.7744 1.3097L16.6581 6.42598C16.5046 6.57946 16.3102 6.65109 16.1158 6.65109Z" fill="#F0E9D2"/>
</svg>
