<svg width="21" height="20" viewBox="0 0 21 30" fill="none" xmlns="http://www.w3.org/2000/svg">
<path d="M10.2556 22.7778H10.4111" stroke="#F0E9D2" stroke-width="2.7" stroke-linecap="round" stroke-linejoin="round"/>
<path d="M18.1111 29H2.55556C2.143 29 1.74734 28.8361 1.45561 28.5444C1.16389 28.2527 1 27.857 1 27.4444V2.55556C1 2.143 1.16389 1.74733 1.45561 1.45561C1.74734 1.16389 2.143 1 2.55556 1H18.1111C18.5237 1 18.9193 1.16389 19.2111 1.45561C19.5028 1.74733 19.6667 2.143 19.6667 2.55556V27.4444C19.6667 27.857 19.5028 28.2527 19.2111 28.5444C18.9193 28.8361 18.5237 29 18.1111 29ZM13.4444 1H7.22222L8 4.11111H12.6667L13.4444 1Z" stroke="#F0E9D2" stroke-width="2" stroke-linecap="round" stroke-linejoin="round"/>
</svg>
