<svg width="30" height="30" viewBox="0 0 30 30" fill="none" xmlns="http://www.w3.org/2000/svg">
<path d="M7.21722 16.5591V27.4505C7.21722 27.8632 7.38115 28.259 7.67294 28.5507C7.96473 28.8425 8.36048 29.0065 8.77314 29.0065H27.4441C27.8568 29.0065 28.2525 28.8425 28.5443 28.5507C28.8361 28.259 29 27.8632 29 27.4505V2.55591C29 2.14326 28.8361 1.74751 28.5443 1.45572C28.2525 1.16393 27.8568 1 27.4441 1H8.77314C8.36048 1 7.96473 1.16393 7.67294 1.45572C7.38115 1.74751 7.21722 2.14326 7.21722 2.55591V7.22366" stroke="#F0E9D2" stroke-width="2" stroke-linecap="round" stroke-linejoin="round"/>
<path d="M22.7764 22.7828H18.1086M1.44477 8.29725L3.62305 6.11897C3.91389 5.83388 4.30492 5.6742 4.71219 5.6742C5.11945 5.6742 5.51048 5.83388 5.80133 6.11897L13.4409 13.7585V18.1151H9.08431L1.44477 10.4755C1.15968 10.1847 1 9.79366 1 9.38639C1 8.97913 1.15968 8.58809 1.44477 8.29725Z" stroke="#F0E9D2" stroke-width="2" stroke-linecap="round" stroke-linejoin="round"/>
</svg>
