<svg width="28" height="26" viewBox="0 0 28 29" fill="none" xmlns="http://www.w3.org/2000/svg">
<path d="M19.3322 28.6608H8.66779C2.50906 28.6608 1.36263 25.7947 1.06935 23.0086L0.0695598 12.3308C-0.0770766 10.9311 -0.117069 8.86486 1.26931 7.31851C2.46906 5.98545 4.45532 5.34558 7.33473 5.34558H20.6653C23.558 5.34558 25.5443 5.99878 26.7307 7.31851C28.1171 8.86486 28.0771 10.9311 27.9304 12.3441L26.9306 22.9953C26.6374 25.7947 25.4909 28.6608 19.3322 28.6608ZM7.33473 7.33184C5.08186 7.33184 3.53551 7.77175 2.74901 8.65157C2.09581 9.37142 1.88252 10.4779 2.05582 12.1308L3.05561 22.8086C3.28223 24.9149 3.85545 26.6612 8.66779 26.6612H19.3322C24.1312 26.6612 24.7178 24.9149 24.9444 22.7953L25.9442 12.1442C26.1175 10.4779 25.9042 9.37142 25.251 8.65157C24.4645 7.77175 22.9181 7.33184 20.6653 7.33184H7.33473Z" fill="#F0E9D2"/>
<path d="M19.332 7.33182C18.7854 7.33182 18.3322 6.87858 18.3322 6.33203V5.26558C18.3322 2.89274 18.3322 1.99959 15.0662 1.99959H12.9333C9.66731 1.99959 9.66731 2.89274 9.66731 5.26558V6.33203C9.66731 6.87858 9.21407 7.33182 8.66752 7.33182C8.12096 7.33182 7.66772 6.87858 7.66772 6.33203V5.26558C7.66772 2.9194 7.66772 0 12.9333 0H15.0662C20.3318 0 20.3318 2.9194 20.3318 5.26558V6.33203C20.3318 6.87858 19.8785 7.33182 19.332 7.33182Z" fill="#F0E9D2"/>
<path d="M13.9997 20.6624C10.3337 20.6624 10.3337 18.3962 10.3337 17.0365V15.6634C10.3337 13.7838 10.787 13.3306 12.6666 13.3306H15.3327C17.2123 13.3306 17.6656 13.7838 17.6656 15.6634V16.9965C17.6656 18.3829 17.6656 20.6624 13.9997 20.6624ZM12.3333 15.3302V15.6634V17.0365C12.3333 18.4095 12.3333 18.6628 13.9997 18.6628C15.666 18.6628 15.666 18.4495 15.666 17.0232V15.6634C15.666 15.5568 15.666 15.4368 15.666 15.3302C15.5593 15.3302 15.4394 15.3302 15.3327 15.3302H12.6666C12.5599 15.3302 12.44 15.3302 12.3333 15.3302Z" fill="#F0E9D2"/>
<path d="M16.6652 18.0229C16.172 18.0229 15.7321 17.6497 15.6787 17.1431C15.6121 16.5966 15.9987 16.09 16.5452 16.0233C20.0645 15.5834 23.4371 14.2504 26.2766 12.1841C26.7165 11.8509 27.343 11.9575 27.6763 12.4108C27.9962 12.8507 27.9029 13.4772 27.4496 13.8105C24.3303 16.0767 20.651 17.5297 16.7852 18.0229C16.7452 18.0229 16.7052 18.0229 16.6652 18.0229Z" fill="#F0E9D2"/>
<path d="M11.3345 18.0362C11.2945 18.0362 11.2545 18.0362 11.2145 18.0362C7.56195 17.6229 4.00268 16.2899 0.923315 14.1836C0.470075 13.877 0.3501 13.2505 0.656703 12.7972C0.963307 12.344 1.58984 12.224 2.04308 12.5306C4.85584 14.4502 8.09517 15.6633 11.4278 16.0499C11.9743 16.1166 12.3743 16.6098 12.3076 17.1563C12.2676 17.6629 11.841 18.0362 11.3345 18.0362Z" fill="#F0E9D2"/>
</svg>
