<svg width="31" height="30" viewBox="0 0 31 30" fill="none" xmlns="http://www.w3.org/2000/svg">
<path d="M15.0067 1V7.22092M21.8964 7.22092C23.4735 7.21705 24.9933 7.81236 26.1482 8.88642C27.3031 9.96047 28.0069 11.4331 28.1173 13.0064L29.0038 25.4482C29.0402 25.9178 28.9755 26.3898 28.8142 26.8323C28.6529 27.2748 28.3986 27.6776 28.0685 28.0136C27.7384 28.3496 27.3402 28.6109 26.9006 28.7801C26.461 28.9492 25.9903 29.0222 25.5201 28.9941C24.764 28.9257 24.051 28.6121 23.4896 28.1012C22.9281 27.5903 22.5489 26.9099 22.4096 26.1636L21.2277 20.8914C21.1518 20.5377 20.955 20.2215 20.6711 19.9972C20.3872 19.773 20.0341 19.6547 19.6724 19.6628H10.2477C9.88606 19.6547 9.53291 19.773 9.24905 19.9972C8.96519 20.2215 8.76838 20.5377 8.6925 20.8914L7.55718 26.1636C7.41793 26.9099 7.03873 27.5903 6.47725 28.1012C5.91578 28.6121 5.20278 28.9257 4.44672 28.9941C3.98036 29.0153 3.51481 28.9372 3.08089 28.765C2.64697 28.5928 2.25456 28.3304 1.92964 27.9952C1.60471 27.66 1.35468 27.2596 1.19609 26.8205C1.03749 26.3814 0.973948 25.9137 1.00966 25.4482L1.89614 13.0064C2.00654 11.4331 2.71038 9.96047 3.86528 8.88642C5.02018 7.81236 6.53992 7.21705 8.11706 7.22092H21.8964ZM19.6724 7.22092H10.341L11.1187 10.3314H18.8948L19.6724 7.22092Z" stroke="#F0E9D2" stroke-width="2" stroke-linecap="round" stroke-linejoin="round"/>
</svg>
