<svg width="32" height="30" viewBox="0 0 32 30" fill="none" xmlns="http://www.w3.org/2000/svg">
<path d="M14.2522 20.7046V23.5466C14.2522 25.9546 12.0122 27.9006 9.25422 27.9006C6.49622 27.9006 4.24219 25.9546 4.24219 23.5466V20.7046C4.24219 23.1126 6.48222 24.8206 9.25422 24.8206C12.0122 24.8206 14.2522 23.0986 14.2522 20.7046Z" stroke="#F0E9D2" stroke-width="2.47709" stroke-linecap="round" stroke-linejoin="round"/>
<path d="M14.2501 16.854C14.2501 17.554 14.0541 18.198 13.7181 18.758C12.8921 20.116 11.1981 20.97 9.23807 20.97C7.27807 20.97 5.58405 20.102 4.75805 18.758C4.42205 18.198 4.22614 17.554 4.22614 16.854C4.22614 15.65 4.78611 14.572 5.68211 13.788C6.59211 12.99 7.83805 12.514 9.22405 12.514C10.6101 12.514 11.8561 13.004 12.7661 13.788C13.6901 14.558 14.2501 15.65 14.2501 16.854Z" stroke="#F0E9D2" stroke-width="2.47709" stroke-linecap="round" stroke-linejoin="round"/>
<path d="M14.2522 16.854V20.704C14.2522 23.112 12.0122 24.82 9.25422 24.82C6.49622 24.82 4.24219 23.098 4.24219 20.704V16.854C4.24219 14.446 6.48222 12.5 9.25422 12.5C10.6402 12.5 11.8863 12.99 12.7963 13.774C13.6922 14.558 14.2522 15.65 14.2522 16.854Z" stroke="#F0E9D2" stroke-width="2.47709" stroke-linecap="round" stroke-linejoin="round"/>
<path d="M30.0001 12.4579V15.342C30.0001 16.112 29.3841 16.7419 28.6001 16.7699H25.8559C24.3439 16.7699 22.9581 15.6639 22.8321 14.1519C22.7481 13.2699 23.0839 12.4439 23.6719 11.8699C24.1899 11.3379 24.9041 11.03 25.6881 11.03H28.6001C29.3841 11.058 30.0001 11.6879 30.0001 12.4579Z" stroke="#F0E9D2" stroke-width="2.47709" stroke-linecap="round" stroke-linejoin="round"/>
<path d="M2 11.8V9C2 5.192 4.296 2.532 7.866 2.084C8.23 2.028 8.608 2 9 2H21.6C21.964 2 22.314 2.01399 22.65 2.06999C26.262 2.48999 28.6 5.164 28.6 9V11.03H25.688C24.904 11.03 24.19 11.338 23.672 11.87C23.084 12.444 22.748 13.27 22.832 14.152C22.958 15.664 24.344 16.77 25.856 16.77H28.6V18.8C28.6 23 25.8 25.8 21.6 25.8H18.1" stroke="#F0E9D2" stroke-width="2.47709" stroke-linecap="round" stroke-linejoin="round"/>
</svg>
