<svg width="30" height="24" viewBox="0 0 30 24" fill="none" xmlns="http://www.w3.org/2000/svg">
<path d="M25.8889 16.5556H4.11111M25.8889 16.5556C26.714 16.5556 27.5053 16.2278 28.0888 15.6443C28.6722 15.0609 29 14.2696 29 13.4444C29 12.6193 28.6722 11.828 28.0888 11.2446C27.5053 10.6611 26.714 10.3333 25.8889 10.3333M25.8889 16.5556C25.8889 18.2058 25.2333 19.7884 24.0664 20.9553C22.8995 22.1222 21.3169 22.7778 19.6667 22.7778H10.3333C8.6831 22.7778 7.10045 22.1222 5.93356 20.9553C4.76666 19.7884 4.11111 18.2058 4.11111 16.5556M4.11111 16.5556C3.28599 16.5556 2.49467 16.2278 1.91122 15.6443C1.32778 15.0609 1 14.2696 1 13.4444C1 12.6193 1.32778 11.828 1.91122 11.2446C2.49467 10.6611 3.28599 10.3333 4.11111 10.3333M4.11111 10.3333H25.8889M4.11111 10.3333V7.22222C4.11111 5.57199 4.76666 3.98934 5.93356 2.82245C7.10045 1.65555 8.6831 1 10.3333 1H19.6667C21.3169 1 22.8995 1.65555 24.0664 2.82245C25.2333 3.98934 25.8889 5.57199 25.8889 7.22222V10.3333" stroke="#F0E9D2" stroke-width="2" stroke-linecap="round" stroke-linejoin="round"/>
</svg>
