<svg width="28" height="28" viewBox="0 0 28 28" fill="none" xmlns="http://www.w3.org/2000/svg">
<path d="M5.13284 6.67843C4.88537 6.67843 4.62487 6.57423 4.44253 6.39189C4.06481 6.01417 4.06481 5.38898 4.44253 5.01127L9.17051 0.283288C9.54822 -0.0944293 10.1734 -0.0944293 10.5511 0.283288C10.9288 0.661005 10.9288 1.28619 10.5511 1.66391L5.82315 6.39189C5.62778 6.57423 5.38031 6.67843 5.13284 6.67843Z" fill="#F0E9D2"/>
<path d="M22.8703 6.67843C22.6228 6.67843 22.3753 6.58726 22.18 6.39189L17.452 1.66391C17.0743 1.28619 17.0743 0.661005 17.452 0.283288C17.8297 -0.0944293 18.4549 -0.0944293 18.8326 0.283288L23.5606 5.01127C23.9383 5.38898 23.9383 6.01417 23.5606 6.39189C23.3782 6.57423 23.1177 6.67843 22.8703 6.67843Z" fill="#F0E9D2"/>
<path d="M24.6949 12.1751C24.6037 12.1751 24.5125 12.1751 24.4214 12.1751H24.1218H3.5818C2.67007 12.1881 1.62809 12.1881 0.872657 11.4327C0.273519 10.8466 0 9.93482 0 8.59328C0 5.01147 2.61797 5.01147 3.86835 5.01147H24.1348C25.3852 5.01147 28.0032 5.01147 28.0032 8.59328C28.0032 9.94785 27.7297 10.8466 27.1305 11.4327C26.4532 12.11 25.5415 12.1751 24.6949 12.1751ZM3.86835 10.2214H24.4344C25.0205 10.2344 25.5676 10.2344 25.7499 10.052C25.8411 9.96087 26.0364 9.64828 26.0364 8.59328C26.0364 7.12148 25.6717 6.96518 24.1218 6.96518H3.86835C2.3184 6.96518 1.95371 7.12148 1.95371 8.59328C1.95371 9.64828 2.16211 9.96087 2.24025 10.052C2.4226 10.2214 2.98266 10.2214 3.55575 10.2214H3.86835Z" fill="#F0E9D2"/>
<path d="M11.0837 22.204C10.5497 22.204 10.1069 21.7611 10.1069 21.2271V16.6034C10.1069 16.0693 10.5497 15.6265 11.0837 15.6265C11.6178 15.6265 12.0606 16.0693 12.0606 16.6034V21.2271C12.0606 21.7742 11.6178 22.204 11.0837 22.204Z" fill="#F0E9D2"/>
<path d="M17.0746 22.204C16.5406 22.204 16.0978 21.7611 16.0978 21.2271V16.6034C16.0978 16.0693 16.5406 15.6265 17.0746 15.6265C17.6086 15.6265 18.0515 16.0693 18.0515 16.6034V21.2271C18.0515 21.7742 17.6086 22.204 17.0746 22.204Z" fill="#F0E9D2"/>
<path d="M17.7666 28H9.91274C5.24988 28 4.20791 25.2257 3.80414 22.8162L1.96765 11.5498C1.87648 11.0157 2.24117 10.5208 2.77518 10.4296C3.3092 10.3385 3.80414 10.7031 3.89531 11.2372L5.7318 22.4905C6.10952 24.7959 6.891 26.0463 9.91274 26.0463H17.7666C21.114 26.0463 21.4917 24.8741 21.9215 22.6078L24.1097 11.2111C24.2139 10.6771 24.7218 10.3254 25.2558 10.4427C25.7898 10.5469 26.1285 11.0548 26.0243 11.5888L23.8361 22.9855C23.3282 25.6295 22.4816 28 17.7666 28Z" fill="#F0E9D2"/>
</svg>
