<svg width="28" height="29" viewBox="0 0 28 29" fill="none" xmlns="http://www.w3.org/2000/svg">
<path d="M21.7769 8.08942C21.6788 8.0754 21.5807 8.0754 21.4825 8.08942C19.3095 8.01932 17.585 6.23881 17.585 4.05172C17.585 1.82257 19.3936 0 21.6367 0C23.8659 0 25.6885 1.80855 25.6885 4.05172C25.6744 6.23881 23.95 8.01932 21.7769 8.08942Z" fill="#F0E9D2"/>
<path d="M26.3509 17.8057C24.7807 18.8572 22.5796 19.2498 20.5467 18.9834C21.0795 17.8338 21.3599 16.558 21.3739 15.2121C21.3739 13.8101 21.0655 12.4782 20.4766 11.3146C22.5516 11.0342 24.7527 11.4267 26.3369 12.4782C28.552 13.9363 28.552 16.3336 26.3509 17.8057Z" fill="#F0E9D2"/>
<path d="M6.23045 8.08942C6.32859 8.0754 6.42673 8.0754 6.52487 8.08942C8.69793 8.01932 10.4224 6.23881 10.4224 4.05172C10.4224 1.80855 8.61382 0 6.37065 0C4.1415 0 2.33295 1.80855 2.33295 4.05172C2.33295 6.23881 4.05738 8.01932 6.23045 8.08942Z" fill="#F0E9D2"/>
<path d="M6.38602 15.2123C6.38602 16.5723 6.68043 17.8621 7.21318 19.0257C5.23639 19.236 3.17548 18.8154 1.66135 17.82C-0.553782 16.3479 -0.553782 13.9505 1.66135 12.4785C3.16146 11.469 5.27845 11.0625 7.26926 11.2868C6.69445 12.4645 6.38602 13.7963 6.38602 15.2123Z" fill="#F0E9D2"/>
<path d="M14.1946 19.4455C14.0824 19.4315 13.9563 19.4315 13.8301 19.4455C11.2505 19.3614 9.18951 17.2444 9.18951 14.6367C9.20353 11.9729 11.3486 9.81387 14.0264 9.81387C16.6901 9.81387 18.8492 11.9729 18.8492 14.6367C18.8352 17.2444 16.7883 19.3614 14.1946 19.4455Z" fill="#F0E9D2"/>
<path d="M9.63816 22.3484C7.52117 23.7644 7.52117 26.0917 9.63816 27.4936C12.0496 29.1059 16.0032 29.1059 18.4146 27.4936C20.5316 26.0776 20.5316 23.7503 18.4146 22.3484C16.0172 20.7361 12.0636 20.7361 9.63816 22.3484Z" fill="#F0E9D2"/>
</svg>
