<svg width="28" height="28" viewBox="0 0 28 28" fill="none" xmlns="http://www.w3.org/2000/svg">
<path d="M17.907 28H10.093C3.0214 28 0 24.9786 0 17.907V10.093C0 3.0214 3.0214 0 10.093 0H17.907C24.9786 0 28 3.0214 28 10.093V17.907C28 24.9786 24.9786 28 17.907 28ZM10.093 1.95349C4.0893 1.95349 1.95349 4.0893 1.95349 10.093V17.907C1.95349 23.9107 4.0893 26.0465 10.093 26.0465H17.907C23.9107 26.0465 26.0465 23.9107 26.0465 17.907V10.093C26.0465 4.0893 23.9107 1.95349 17.907 1.95349H10.093Z" fill="#F0E9D2"/>
<path d="M19.0582 13.8605C17.4433 13.8605 16.1279 12.5451 16.1279 10.9302C16.1279 9.31535 17.4433 8 19.0582 8C20.673 8 21.9884 9.31535 21.9884 10.9302C21.9884 12.5451 20.673 13.8605 19.0582 13.8605Z" fill="#F0E9D2"/>
<path d="M9.94189 13.8605C8.32701 13.8605 7.01166 12.5451 7.01166 10.9302C7.01166 9.31535 8.32701 8 9.94189 8C11.5568 8 12.8721 9.31535 12.8721 10.9302C12.8721 12.5451 11.5568 13.8605 9.94189 13.8605Z" fill="#F0E9D2"/>
<path d="M14.5 20.7339C9.73538 20.7339 7 20.7339 7 19.2339C7 18.0488 8.55027 17.9502 9.73538 17.9502H19.1121C20.2972 17.9502 21.5 18.0488 21.5 19.2339C21.5 20.7339 19.1121 20.7339 14.5 20.7339Z" fill="#F0E9D2"/>
</svg>
