<svg width="28" height="28" viewBox="0 0 28 28" fill="none" xmlns="http://www.w3.org/2000/svg">
<path d="M17.907 28H10.093C3.0214 28 0 24.9786 0 17.907V10.093C0 3.0214 3.0214 0 10.093 0H17.907C24.9786 0 28 3.0214 28 10.093V17.907C28 24.9786 24.9786 28 17.907 28ZM10.093 1.95349C4.0893 1.95349 1.95349 4.0893 1.95349 10.093V17.907C1.95349 23.9107 4.0893 26.0465 10.093 26.0465H17.907C23.9107 26.0465 26.0465 23.9107 26.0465 17.907V10.093C26.0465 4.0893 23.9107 1.95349 17.907 1.95349H10.093Z" fill="#F0E9D2"/>
<path d="M18.5581 12.0465C16.9432 12.0465 15.6279 10.7312 15.6279 9.11627C15.6279 7.50138 16.9432 6.18604 18.5581 6.18604C20.173 6.18604 21.4884 7.50138 21.4884 9.11627C21.4884 10.7312 20.173 12.0465 18.5581 12.0465Z" fill="#F0E9D2"/>
<path d="M9.44189 12.0465C7.82701 12.0465 6.51166 10.7312 6.51166 9.11627C6.51166 7.50138 7.82701 6.18604 9.44189 6.18604C11.0568 6.18604 12.3721 7.50138 12.3721 9.11627C12.3721 10.7312 11.0568 12.0465 9.44189 12.0465Z" fill="#F0E9D2"/>
<path d="M14 23.7023C10.2233 23.7023 7.16281 20.6288 7.16281 16.8651C7.16281 15.68 8.12653 14.7163 9.31165 14.7163H18.6884C19.8735 14.7163 20.8372 15.68 20.8372 16.8651C20.8372 20.6288 17.7768 23.7023 14 23.7023ZM9.31165 16.6698C9.20746 16.6698 9.1163 16.7609 9.1163 16.8651C9.1163 19.5609 11.3042 21.7488 14 21.7488C16.6958 21.7488 18.8837 19.5609 18.8837 16.8651C18.8837 16.7609 18.7926 16.6698 18.6884 16.6698H9.31165Z" fill="#F0E9D2"/>
</svg>
