<svg width="30" height="30" viewBox="0 0 30 30" fill="none" xmlns="http://www.w3.org/2000/svg">
<path d="M10.8 29H19.2C26.2 29 29 26.2 29 19.2V10.8C29 3.8 26.2 1 19.2 1H10.8C3.8 1 1 3.8 1 10.8V19.2C1 26.2 3.8 29 10.8 29Z" stroke="#F0E9D2" stroke-width="2" stroke-linecap="round" stroke-linejoin="round"/>
<path d="M8 10.45C9.4 9.04999 11.682 9.04999 13.096 10.45" stroke="#F0E9D2" stroke-width="2" stroke-miterlimit="10" stroke-linecap="round" stroke-linejoin="round"/>
<path d="M16.904 10.45C18.304 9.04999 20.586 9.04999 22 10.45" stroke="#F0E9D2" stroke-width="2" stroke-miterlimit="10" stroke-linecap="round" stroke-linejoin="round"/>
<path d="M8.70002 18C8.70002 21.72 11.514 21.72 15 21.72C18.486 21.72 21.3 21.72 21.3 18" stroke="#F0E9D2" stroke-width="2" stroke-miterlimit="10" stroke-linecap="round" stroke-linejoin="round"/>
</svg>
