<svg width="30" height="30" viewBox="0 0 30 30" fill="none" xmlns="http://www.w3.org/2000/svg">
<path d="M10.8 29H19.2C26.2 29 29 26.2 29 19.2V10.8C29 3.8 26.2 1 19.2 1H10.8C3.8 1 1 3.8 1 10.8V19.2C1 26.2 3.8 29 10.8 29Z" stroke="#F0E9D2" stroke-width="2" stroke-linecap="round" stroke-linejoin="round"/>
<path d="M8 10.45C9.4 9.04999 11.682 9.04999 13.096 10.45" stroke="#F0E9D2" stroke-width="2" stroke-miterlimit="10" stroke-linecap="round" stroke-linejoin="round"/>
<path d="M16.9039 10.45C18.3039 9.04999 20.5859 9.04999 21.9999 10.45" stroke="#F0E9D2" stroke-width="2" stroke-miterlimit="10" stroke-linecap="round" stroke-linejoin="round"/>
<path d="M21.3 21.72C20 18 18.486 18 15 18C11.514 18 10 18 8.70001 21.72" stroke="#F0E9D2" stroke-width="2" stroke-miterlimit="10" stroke-linecap="round" stroke-linejoin="round"/>
</svg>
